<svg xmlns="http://www.w3.org/2000/svg" xmlns:xlink="http://www.w3.org/1999/xlink" width="512" zoomAndPan="magnify" viewBox="0 0 384 383.999986" height="512" preserveAspectRatio="xMidYMid meet" version="1.0"><defs><g/><clipPath id="2cb3076756"><path d="M 93.734375 221 L 129 221 L 129 278.152344 L 93.734375 278.152344 Z M 93.734375 221 " clip-rule="nonzero"/></clipPath><clipPath id="d7a47f6a55"><path d="M 147 213 L 183 213 L 183 278.152344 L 147 278.152344 Z M 147 213 " clip-rule="nonzero"/></clipPath><clipPath id="1a7895c4f2"><path d="M 201 194 L 238 194 L 238 278.152344 L 201 278.152344 Z M 201 194 " clip-rule="nonzero"/></clipPath><clipPath id="2fd16b77ac"><path d="M 256 161 L 290.234375 161 L 290.234375 278.152344 L 256 278.152344 Z M 256 161 " clip-rule="nonzero"/></clipPath><clipPath id="9ad09a7ac8"><path d="M 93.734375 71.152344 L 290.234375 71.152344 L 290.234375 203 L 93.734375 203 Z M 93.734375 71.152344 " clip-rule="nonzero"/></clipPath></defs><rect x="-38.4" width="460.8" fill="#ffffff" y="-38.399999" height="460.799983" fill-opacity="1"/><rect x="-38.4" width="460.8" fill="#ffffff" y="-38.399999" height="460.799983" fill-opacity="1"/><g clip-path="url(#2cb3076756)"><path fill="#000000" d="M 93.746094 221.636719 L 128.371094 221.636719 L 128.371094 278.152344 L 93.746094 278.152344 Z M 93.746094 221.636719 " fill-opacity="1" fill-rule="nonzero"/></g><g clip-path="url(#d7a47f6a55)"><path fill="#000000" d="M 147.449219 278.152344 L 147.449219 213.863281 L 182.367188 213.863281 L 182.367188 278.152344 Z M 147.449219 278.152344 " fill-opacity="1" fill-rule="nonzero"/></g><g clip-path="url(#1a7895c4f2)"><path fill="#000000" d="M 201.15625 194.785156 L 237.195312 194.785156 L 237.195312 278.152344 L 201.15625 278.152344 Z M 201.15625 194.785156 " fill-opacity="1" fill-rule="nonzero"/></g><g clip-path="url(#2fd16b77ac)"><path fill="#000000" d="M 256.269531 161.585938 L 290.195312 161.585938 L 290.195312 278.152344 L 256.269531 278.152344 Z M 256.269531 161.585938 " fill-opacity="1" fill-rule="nonzero"/></g><g clip-path="url(#9ad09a7ac8)"><path fill="#000000" d="M 93.746094 202.269531 C 93.746094 202.269531 185.609375 189.867188 248.5 106.476562 L 228.007812 93.054688 L 290.207031 71.152344 L 290.207031 136.710938 L 273.242188 122.019531 C 273.242188 122.019531 196.207031 209.035156 93.746094 202.269531 Z M 93.746094 202.269531 " fill-opacity="1" fill-rule="nonzero"/></g><g fill="#000000" fill-opacity="1"><g transform="translate(92.540178, 307.823732)"><g><path d="M 5.5 -0.890625 C 6.164062 -0.890625 6.710938 -1.09375 7.140625 -1.5 C 7.578125 -1.914062 7.796875 -2.488281 7.796875 -3.21875 C 7.796875 -3.894531 7.503906 -4.484375 6.921875 -4.984375 C 6.429688 -5.398438 5.867188 -5.789062 5.234375 -6.15625 C 4.609375 -6.519531 4.210938 -6.75 4.046875 -6.84375 C 3.890625 -6.9375 3.617188 -7.113281 3.234375 -7.375 C 2.847656 -7.644531 2.570312 -7.875 2.40625 -8.0625 C 2.238281 -8.257812 2.039062 -8.5 1.8125 -8.78125 C 1.414062 -9.3125 1.21875 -9.984375 1.21875 -10.796875 C 1.21875 -12.035156 1.675781 -13.003906 2.59375 -13.703125 C 3.519531 -14.410156 4.703125 -14.765625 6.140625 -14.765625 C 6.660156 -14.765625 8.003906 -14.570312 10.171875 -14.1875 C 10.160156 -13.832031 10.082031 -13.238281 9.9375 -12.40625 C 9.800781 -11.582031 9.6875 -11.007812 9.59375 -10.6875 L 8.515625 -10.53125 C 8.410156 -11.726562 8.269531 -12.554688 8.09375 -13.015625 C 7.59375 -13.378906 6.882812 -13.5625 5.96875 -13.5625 C 5.382812 -13.5625 4.90625 -13.378906 4.53125 -13.015625 C 4.15625 -12.660156 3.96875 -12.164062 3.96875 -11.53125 C 3.96875 -10.90625 4.285156 -10.359375 4.921875 -9.890625 C 5.390625 -9.535156 5.984375 -9.15625 6.703125 -8.75 C 7.429688 -8.34375 7.96875 -8.023438 8.3125 -7.796875 C 8.65625 -7.578125 9.046875 -7.285156 9.484375 -6.921875 C 10.316406 -6.191406 10.734375 -5.265625 10.734375 -4.140625 C 10.734375 -2.679688 10.210938 -1.566406 9.171875 -0.796875 C 8.128906 -0.0234375 6.84375 0.359375 5.3125 0.359375 C 3.789062 0.359375 2.390625 0.0820312 1.109375 -0.46875 C 1.078125 -0.65625 1.0625 -1.25 1.0625 -2.25 C 1.0625 -3.25 1.09375 -3.890625 1.15625 -4.171875 L 2.3125 -4.40625 C 2.394531 -3.375 2.691406 -2.53125 3.203125 -1.875 C 3.722656 -1.21875 4.488281 -0.890625 5.5 -0.890625 Z M 5.5 -0.890625 "/></g></g></g><g fill="#000000" fill-opacity="1"><g transform="translate(109.011104, 307.823732)"><g><path d="M 5.828125 -7.078125 L 6.5625 -6.984375 C 8.207031 -6.984375 9.03125 -8.066406 9.03125 -10.234375 C 9.03125 -12.410156 8.132812 -13.5 6.34375 -13.5 C 6.101562 -13.5 5.828125 -13.445312 5.515625 -13.34375 L 5.515625 -1.921875 C 5.515625 -1.703125 5.546875 -1.535156 5.609375 -1.421875 C 5.671875 -1.316406 5.804688 -1.226562 6.015625 -1.15625 L 7.796875 -0.734375 L 7.625 0.203125 C 6.238281 0.0664062 5.160156 0 4.390625 0 C 3.617188 0 2.566406 0.0664062 1.234375 0.203125 L 1.0625 -0.671875 C 1.625 -0.785156 2.03125 -0.910156 2.28125 -1.046875 C 2.53125 -1.191406 2.65625 -1.425781 2.65625 -1.75 L 2.65625 -12.609375 C 2.65625 -12.921875 2.566406 -13.125 2.390625 -13.21875 C 2.128906 -13.363281 1.753906 -13.492188 1.265625 -13.609375 L 1.046875 -13.6875 L 1.21875 -14.5 C 1.257812 -14.457031 1.519531 -14.4375 2 -14.4375 L 6.359375 -14.59375 C 10.191406 -14.59375 12.109375 -13.234375 12.109375 -10.515625 C 12.109375 -9.296875 11.617188 -8.242188 10.640625 -7.359375 C 9.660156 -6.484375 8.578125 -6.046875 7.390625 -6.046875 C 7.191406 -6.046875 6.929688 -6.113281 6.609375 -6.25 C 6.296875 -6.382812 6.066406 -6.503906 5.921875 -6.609375 Z M 5.828125 -7.078125 "/></g></g></g><g fill="#000000" fill-opacity="1"><g transform="translate(126.235563, 307.823732)"><g><path d="M 11.484375 -14.546875 L 11.53125 -12.609375 C 11.53125 -12.097656 11.507812 -11.582031 11.46875 -11.0625 L 10.4375 -10.890625 C 10.226562 -12.023438 9.992188 -12.75 9.734375 -13.0625 L 5.515625 -13.0625 L 5.515625 -8.1875 L 8.078125 -8.1875 C 8.441406 -8.1875 8.679688 -8.296875 8.796875 -8.515625 C 8.890625 -8.679688 9.003906 -9.019531 9.140625 -9.53125 L 9.171875 -9.75 L 10.125 -9.640625 C 10.007812 -8.859375 9.953125 -8.128906 9.953125 -7.453125 C 9.953125 -6.785156 10.007812 -6.082031 10.125 -5.34375 L 9.171875 -5.25 C 9.046875 -5.832031 8.925781 -6.238281 8.8125 -6.46875 C 8.695312 -6.695312 8.453125 -6.8125 8.078125 -6.8125 L 5.515625 -6.8125 L 5.515625 -1.375 L 9.953125 -1.375 C 10.148438 -1.539062 10.375 -1.921875 10.625 -2.515625 C 10.882812 -3.117188 11.066406 -3.601562 11.171875 -3.96875 L 12.1875 -3.796875 C 12.175781 -3.359375 12.117188 -2.691406 12.015625 -1.796875 C 11.910156 -0.910156 11.816406 -0.3125 11.734375 0 L 3.984375 0 C 3.378906 0 2.441406 0.0664062 1.171875 0.203125 L 1 -0.671875 C 1.957031 -0.859375 2.492188 -1.078125 2.609375 -1.328125 C 2.640625 -1.398438 2.65625 -1.539062 2.65625 -1.75 L 2.65625 -12.703125 C 2.65625 -13.046875 2.539062 -13.269531 2.3125 -13.375 C 2.03125 -13.5 1.671875 -13.609375 1.234375 -13.703125 L 1 -13.765625 L 1.203125 -14.640625 C 2.617188 -14.484375 3.546875 -14.40625 3.984375 -14.40625 L 9.4375 -14.40625 C 10.15625 -14.40625 10.835938 -14.453125 11.484375 -14.546875 Z M 11.484375 -14.546875 "/></g></g></g><g fill="#000000" fill-opacity="1"><g transform="translate(144.257898, 307.823732)"><g><path d="M 4.546875 -1.921875 C 4.546875 -1.703125 4.570312 -1.53125 4.625 -1.40625 C 4.6875 -1.289062 4.820312 -1.207031 5.03125 -1.15625 C 5.226562 -1.0625 5.703125 -0.941406 6.453125 -0.796875 L 6.8125 -0.734375 L 6.625 0.203125 C 5.601562 0.0664062 4.691406 0 3.890625 0 C 3.097656 0 2.171875 0.0664062 1.109375 0.203125 L 0.9375 -0.671875 C 1.539062 -0.773438 2 -0.90625 2.3125 -1.0625 C 2.539062 -1.164062 2.65625 -1.394531 2.65625 -1.75 L 2.65625 -12.703125 C 2.65625 -13.023438 2.539062 -13.25 2.3125 -13.375 L 1 -13.765625 L 1.15625 -14.640625 C 1.96875 -14.484375 2.757812 -14.40625 3.53125 -14.40625 C 4.3125 -14.40625 5.113281 -14.484375 5.9375 -14.640625 C 6.28125 -14.046875 6.738281 -13.328125 7.3125 -12.484375 L 11.921875 -5.828125 C 12.148438 -5.492188 12.359375 -5.054688 12.546875 -4.515625 L 12.640625 -4.25 L 12.75 -4.34375 L 12.75 -12.640625 C 12.75 -12.960938 12.625 -13.179688 12.375 -13.296875 C 12.207031 -13.390625 11.804688 -13.507812 11.171875 -13.65625 L 10.890625 -13.71875 L 11.046875 -14.640625 C 12.179688 -14.484375 13.0625 -14.40625 13.6875 -14.40625 C 14.320312 -14.40625 15.140625 -14.484375 16.140625 -14.640625 L 16.296875 -13.765625 C 15.734375 -13.648438 15.316406 -13.519531 15.046875 -13.375 C 14.773438 -13.238281 14.640625 -13.015625 14.640625 -12.703125 L 14.640625 -4.28125 C 14.640625 -3.125 14.679688 -1.945312 14.765625 -0.75 L 14.8125 -0.15625 L 12.421875 0.3125 C 11.867188 -0.894531 11.023438 -2.316406 9.890625 -3.953125 L 5.453125 -10.28125 C 5.203125 -10.632812 4.972656 -11.035156 4.765625 -11.484375 L 4.65625 -11.734375 L 4.546875 -11.640625 Z M 4.546875 -1.921875 "/></g></g></g><g fill="#000000" fill-opacity="1"><g transform="translate(166.158767, 307.823732)"><g><path d="M 5.515625 -2.171875 C 5.515625 -1.398438 6.332031 -1.015625 7.96875 -1.015625 C 9.601562 -1.015625 10.851562 -1.578125 11.71875 -2.703125 C 12.582031 -3.828125 13.015625 -5.390625 13.015625 -7.390625 C 13.015625 -9.398438 12.53125 -10.90625 11.5625 -11.90625 C 10.601562 -12.90625 9.113281 -13.40625 7.09375 -13.40625 C 6.414062 -13.40625 5.890625 -13.34375 5.515625 -13.21875 Z M 2.1875 -14.484375 L 7.515625 -14.640625 C 10.148438 -14.640625 12.226562 -14.117188 13.75 -13.078125 C 15.34375 -12.003906 16.140625 -10.253906 16.140625 -7.828125 C 16.140625 -5.398438 15.429688 -3.457031 14.015625 -2 C 12.597656 -0.550781 10.640625 0.171875 8.140625 0.171875 C 7.460938 0.171875 6.65625 0.140625 5.71875 0.078125 C 4.789062 0.0234375 4.140625 0 3.765625 0 C 3.398438 0 2.566406 0.0664062 1.265625 0.203125 L 1.09375 -0.671875 C 1.632812 -0.785156 2.03125 -0.910156 2.28125 -1.046875 C 2.53125 -1.191406 2.65625 -1.425781 2.65625 -1.75 L 2.65625 -12.609375 C 2.65625 -12.785156 2.632812 -12.90625 2.59375 -12.96875 C 2.5625 -13.039062 2.476562 -13.125 2.34375 -13.21875 C 2.082031 -13.375 1.726562 -13.503906 1.28125 -13.609375 L 1.0625 -13.6875 L 1.234375 -14.5 C 1.492188 -14.488281 1.8125 -14.484375 2.1875 -14.484375 Z M 2.1875 -14.484375 "/></g></g></g><g fill="#000000" fill-opacity="1"><g transform="translate(188.037467, 307.823732)"><g/></g></g><g fill="#000000" fill-opacity="1"><g transform="translate(197.438361, 307.823732)"><g><path d="M 5.5 -0.890625 C 6.164062 -0.890625 6.710938 -1.09375 7.140625 -1.5 C 7.578125 -1.914062 7.796875 -2.488281 7.796875 -3.21875 C 7.796875 -3.894531 7.503906 -4.484375 6.921875 -4.984375 C 6.429688 -5.398438 5.867188 -5.789062 5.234375 -6.15625 C 4.609375 -6.519531 4.210938 -6.75 4.046875 -6.84375 C 3.890625 -6.9375 3.617188 -7.113281 3.234375 -7.375 C 2.847656 -7.644531 2.570312 -7.875 2.40625 -8.0625 C 2.238281 -8.257812 2.039062 -8.5 1.8125 -8.78125 C 1.414062 -9.3125 1.21875 -9.984375 1.21875 -10.796875 C 1.21875 -12.035156 1.675781 -13.003906 2.59375 -13.703125 C 3.519531 -14.410156 4.703125 -14.765625 6.140625 -14.765625 C 6.660156 -14.765625 8.003906 -14.570312 10.171875 -14.1875 C 10.160156 -13.832031 10.082031 -13.238281 9.9375 -12.40625 C 9.800781 -11.582031 9.6875 -11.007812 9.59375 -10.6875 L 8.515625 -10.53125 C 8.410156 -11.726562 8.269531 -12.554688 8.09375 -13.015625 C 7.59375 -13.378906 6.882812 -13.5625 5.96875 -13.5625 C 5.382812 -13.5625 4.90625 -13.378906 4.53125 -13.015625 C 4.15625 -12.660156 3.96875 -12.164062 3.96875 -11.53125 C 3.96875 -10.90625 4.285156 -10.359375 4.921875 -9.890625 C 5.390625 -9.535156 5.984375 -9.15625 6.703125 -8.75 C 7.429688 -8.34375 7.96875 -8.023438 8.3125 -7.796875 C 8.65625 -7.578125 9.046875 -7.285156 9.484375 -6.921875 C 10.316406 -6.191406 10.734375 -5.265625 10.734375 -4.140625 C 10.734375 -2.679688 10.210938 -1.566406 9.171875 -0.796875 C 8.128906 -0.0234375 6.84375 0.359375 5.3125 0.359375 C 3.789062 0.359375 2.390625 0.0820312 1.109375 -0.46875 C 1.078125 -0.65625 1.0625 -1.25 1.0625 -2.25 C 1.0625 -3.25 1.09375 -3.890625 1.15625 -4.171875 L 2.3125 -4.40625 C 2.394531 -3.375 2.691406 -2.53125 3.203125 -1.875 C 3.722656 -1.21875 4.488281 -0.890625 5.5 -0.890625 Z M 5.5 -0.890625 "/></g></g></g><g fill="#000000" fill-opacity="1"><g transform="translate(213.909284, 307.823732)"><g><path d="M 14.5625 -14.640625 C 15.332031 -14.484375 16.113281 -14.40625 16.90625 -14.40625 C 17.695312 -14.40625 18.519531 -14.484375 19.375 -14.640625 L 19.53125 -13.765625 C 18.988281 -13.628906 18.582031 -13.492188 18.3125 -13.359375 C 18.050781 -13.234375 17.929688 -12.984375 17.953125 -12.609375 L 18.625 -1.8125 C 18.632812 -1.457031 18.769531 -1.207031 19.03125 -1.0625 C 19.257812 -0.945312 19.640625 -0.816406 20.171875 -0.671875 L 20.015625 0.203125 C 19.085938 0.0664062 18.164062 0 17.25 0 C 16.332031 0 15.289062 0.0664062 14.125 0.203125 L 13.96875 -0.703125 C 15.03125 -0.929688 15.632812 -1.171875 15.78125 -1.421875 C 15.84375 -1.492188 15.867188 -1.625 15.859375 -1.8125 L 15.328125 -11.328125 L 15.1875 -11.4375 C 15.019531 -10.695312 14.863281 -10.148438 14.71875 -9.796875 L 12.078125 -3.140625 C 11.828125 -2.523438 11.554688 -1.6875 11.265625 -0.625 L 11.125 -0.140625 L 9.03125 0.40625 C 8.613281 -1 8.25 -2.085938 7.9375 -2.859375 L 5.28125 -9.6875 L 4.859375 -11.15625 L 4.703125 -11.046875 L 4.0625 -1.8125 C 4.039062 -1.625 4.054688 -1.488281 4.109375 -1.40625 C 4.160156 -1.320312 4.253906 -1.242188 4.390625 -1.171875 C 4.640625 -1.035156 5.0625 -0.90625 5.65625 -0.78125 L 5.9375 -0.703125 L 5.765625 0.203125 C 4.804688 0.0664062 3.96875 0 3.25 0 C 2.53125 0 1.707031 0.0664062 0.78125 0.203125 L 0.59375 -0.671875 C 1.144531 -0.785156 1.546875 -0.90625 1.796875 -1.03125 C 2.054688 -1.164062 2.195312 -1.40625 2.21875 -1.75 L 3.03125 -12.6875 C 3.050781 -13.007812 2.9375 -13.238281 2.6875 -13.375 C 2.445312 -13.488281 2.082031 -13.597656 1.59375 -13.703125 L 1.359375 -13.765625 L 1.5 -14.640625 C 2.320312 -14.484375 3.175781 -14.40625 4.0625 -14.40625 C 4.957031 -14.40625 5.820312 -14.484375 6.65625 -14.640625 C 6.832031 -13.953125 6.976562 -13.441406 7.09375 -13.109375 L 10.28125 -4.484375 L 10.578125 -3.4375 L 10.734375 -3.390625 C 10.765625 -3.878906 10.832031 -4.234375 10.9375 -4.453125 L 14.09375 -12.96875 Z M 14.5625 -14.640625 "/></g></g></g><g fill="#000000" fill-opacity="1"><g transform="translate(239.68868, 307.823732)"><g><path d="M 3.28125 -1.65625 C 3.28125 -1.394531 3.460938 -1.195312 3.828125 -1.0625 L 5.078125 -0.671875 L 4.9375 0.203125 C 3.976562 0.0664062 3.164062 0 2.5 0 C 1.832031 0 0.992188 0.0664062 -0.015625 0.203125 L -0.203125 -0.671875 C 0.460938 -0.796875 0.882812 -0.945312 1.0625 -1.125 C 1.238281 -1.300781 1.453125 -1.75 1.703125 -2.46875 L 6.046875 -14.296875 C 6.742188 -14.429688 7.40625 -14.65625 8.03125 -14.96875 L 12.859375 -2.46875 C 13.128906 -1.769531 13.351562 -1.328125 13.53125 -1.140625 C 13.707031 -0.953125 14.082031 -0.796875 14.65625 -0.671875 L 14.5 0.203125 C 13.476562 0.0664062 12.484375 0 11.515625 0 C 10.546875 0 9.507812 0.0664062 8.40625 0.203125 L 8.265625 -0.671875 C 8.753906 -0.816406 9.171875 -0.953125 9.515625 -1.078125 C 9.867188 -1.210938 10.046875 -1.40625 10.046875 -1.65625 C 10.046875 -1.757812 10.023438 -1.863281 9.984375 -1.96875 L 8.84375 -5.0625 L 4.375 -5.0625 L 3.328125 -1.96875 C 3.296875 -1.894531 3.28125 -1.789062 3.28125 -1.65625 Z M 6.34375 -10.75 L 4.859375 -6.46875 L 8.34375 -6.46875 L 6.84375 -10.59375 L 6.609375 -11.53125 L 6.453125 -11.59375 Z M 6.34375 -10.75 "/></g></g></g><g fill="#000000" fill-opacity="1"><g transform="translate(258.996473, 307.823732)"><g><path d="M 5.515625 -7.5625 L 6.1875 -7.5625 C 8.082031 -7.5625 9.03125 -8.550781 9.03125 -10.53125 C 9.03125 -11.550781 8.820312 -12.300781 8.40625 -12.78125 C 7.988281 -13.257812 7.320312 -13.5 6.40625 -13.5 C 6.0625 -13.5 5.765625 -13.445312 5.515625 -13.34375 Z M 1.953125 -14.4375 L 6.40625 -14.59375 C 8.101562 -14.59375 9.476562 -14.300781 10.53125 -13.71875 C 11.582031 -13.132812 12.109375 -12.175781 12.109375 -10.84375 C 12.109375 -9.863281 11.753906 -9.007812 11.046875 -8.28125 C 10.335938 -7.5625 9.484375 -7.164062 8.484375 -7.09375 L 8.484375 -6.9375 C 8.929688 -6.832031 9.382812 -6.519531 9.84375 -6 C 10.300781 -5.488281 10.691406 -4.9375 11.015625 -4.34375 C 11.921875 -2.707031 12.660156 -1.6875 13.234375 -1.28125 C 13.804688 -0.882812 14.398438 -0.6875 15.015625 -0.6875 L 14.875 0.140625 L 10.953125 0.140625 C 10.597656 0.140625 10.15625 -0.273438 9.625 -1.109375 C 9.144531 -1.859375 8.707031 -2.613281 8.3125 -3.375 C 7.914062 -4.132812 7.609375 -4.710938 7.390625 -5.109375 C 7.179688 -5.503906 6.972656 -5.800781 6.765625 -6 C 6.554688 -6.195312 6.273438 -6.296875 5.921875 -6.296875 L 5.515625 -6.296875 L 5.515625 -1.921875 C 5.515625 -1.703125 5.546875 -1.535156 5.609375 -1.421875 C 5.671875 -1.316406 5.804688 -1.226562 6.015625 -1.15625 L 7.78125 -0.734375 L 7.625 0.203125 C 6.238281 0.0664062 5.15625 0 4.375 0 C 3.601562 0 2.550781 0.0664062 1.21875 0.203125 L 1.0625 -0.671875 C 1.976562 -0.859375 2.492188 -1.078125 2.609375 -1.328125 C 2.640625 -1.398438 2.65625 -1.539062 2.65625 -1.75 L 2.65625 -12.609375 C 2.65625 -12.941406 2.566406 -13.160156 2.390625 -13.265625 C 2.066406 -13.421875 1.695312 -13.546875 1.28125 -13.640625 L 1.0625 -13.6875 L 1.21875 -14.5 C 1.257812 -14.457031 1.503906 -14.4375 1.953125 -14.4375 Z M 1.953125 -14.4375 "/></g></g></g><g fill="#000000" fill-opacity="1"><g transform="translate(278.59238, 307.823732)"><g><path d="M 9.78125 0.203125 C 8.644531 0.0664062 7.523438 0 6.421875 0 C 5.316406 0 4.195312 0.0664062 3.0625 0.203125 L 2.859375 -0.6875 C 4.085938 -0.925781 4.773438 -1.171875 4.921875 -1.421875 C 4.960938 -1.492188 4.984375 -1.625 4.984375 -1.8125 L 4.984375 -13.03125 L 2.0625 -13.03125 C 1.914062 -12.632812 1.757812 -11.765625 1.59375 -10.421875 L 0.328125 -10.625 C 0.203125 -11.664062 0.140625 -12.507812 0.140625 -13.15625 C 0.140625 -13.800781 0.144531 -14.28125 0.15625 -14.59375 C 1.144531 -14.46875 1.925781 -14.40625 2.5 -14.40625 L 10.328125 -14.40625 C 10.910156 -14.40625 11.695312 -14.46875 12.6875 -14.59375 C 12.695312 -14.414062 12.703125 -14.054688 12.703125 -13.515625 C 12.703125 -12.972656 12.628906 -12.007812 12.484375 -10.625 L 11.234375 -10.421875 C 11.148438 -11.597656 11 -12.46875 10.78125 -13.03125 L 7.84375 -13.03125 L 7.84375 -1.8125 C 7.84375 -1.519531 7.929688 -1.328125 8.109375 -1.234375 C 8.390625 -1.078125 8.894531 -0.914062 9.625 -0.75 L 9.984375 -0.6875 Z M 9.78125 0.203125 "/></g></g></g></svg>